<svg width="603" height="518" viewBox="0 0 603 518" fill="none" xmlns="http://www.w3.org/2000/svg">
<rect width="603" height="518" rx="10" fill="white"/>
<rect x="170.5" y="290.298" width="278" height="172.609" rx="10.5" fill="url(#paint0_linear)" stroke="#F0F0F0"/>
<path d="M264.6 332.084V336.284C264.6 336.704 264.704 337.028 264.91 337.254C265.117 337.481 265.42 337.594 265.82 337.594C266.22 337.594 266.527 337.481 266.74 337.254C266.954 337.028 267.06 336.704 267.06 336.284V332.084H268.77V336.274C268.77 336.901 268.637 337.431 268.37 337.864C268.104 338.298 267.744 338.624 267.29 338.844C266.844 339.064 266.344 339.174 265.79 339.174C265.237 339.174 264.74 339.068 264.3 338.854C263.867 338.634 263.524 338.308 263.27 337.874C263.017 337.434 262.89 336.901 262.89 336.274V332.084H264.6ZM273.371 333.464C274.024 333.464 274.544 333.678 274.931 334.104C275.324 334.524 275.521 335.104 275.521 335.844V339.104H273.821V336.074C273.821 335.701 273.724 335.411 273.531 335.204C273.338 334.998 273.078 334.894 272.751 334.894C272.424 334.894 272.164 334.998 271.971 335.204C271.778 335.411 271.681 335.701 271.681 336.074V339.104H269.971V333.524H271.681V334.264C271.854 334.018 272.088 333.824 272.381 333.684C272.674 333.538 273.004 333.464 273.371 333.464ZM277.569 332.944C277.269 332.944 277.023 332.858 276.829 332.684C276.643 332.504 276.549 332.284 276.549 332.024C276.549 331.758 276.643 331.538 276.829 331.364C277.023 331.184 277.269 331.094 277.569 331.094C277.863 331.094 278.103 331.184 278.289 331.364C278.483 331.538 278.579 331.758 278.579 332.024C278.579 332.284 278.483 332.504 278.289 332.684C278.103 332.858 277.863 332.944 277.569 332.944ZM278.419 333.524V339.104H276.709V333.524H278.419ZM282.769 337.654V339.104H281.899C281.279 339.104 280.795 338.954 280.449 338.654C280.102 338.348 279.929 337.851 279.929 337.164V334.944H279.249V333.524H279.929V332.164H281.639V333.524H282.759V334.944H281.639V337.184C281.639 337.351 281.679 337.471 281.759 337.544C281.839 337.618 281.972 337.654 282.159 337.654H282.769ZM288.981 336.224C288.981 336.384 288.971 336.551 288.951 336.724H285.081C285.108 337.071 285.218 337.338 285.411 337.524C285.611 337.704 285.854 337.794 286.141 337.794C286.568 337.794 286.864 337.614 287.031 337.254H288.851C288.758 337.621 288.588 337.951 288.341 338.244C288.101 338.538 287.798 338.768 287.431 338.934C287.064 339.101 286.654 339.184 286.201 339.184C285.654 339.184 285.168 339.068 284.741 338.834C284.314 338.601 283.981 338.268 283.741 337.834C283.501 337.401 283.381 336.894 283.381 336.314C283.381 335.734 283.498 335.228 283.731 334.794C283.971 334.361 284.304 334.028 284.731 333.794C285.158 333.561 285.648 333.444 286.201 333.444C286.741 333.444 287.221 333.558 287.641 333.784C288.061 334.011 288.388 334.334 288.621 334.754C288.861 335.174 288.981 335.664 288.981 336.224ZM287.231 335.774C287.231 335.481 287.131 335.248 286.931 335.074C286.731 334.901 286.481 334.814 286.181 334.814C285.894 334.814 285.651 334.898 285.451 335.064C285.258 335.231 285.138 335.468 285.091 335.774H287.231ZM289.543 336.304C289.543 335.731 289.65 335.228 289.863 334.794C290.083 334.361 290.38 334.028 290.753 333.794C291.127 333.561 291.543 333.444 292.003 333.444C292.37 333.444 292.703 333.521 293.003 333.674C293.31 333.828 293.55 334.034 293.723 334.294V331.704H295.433V339.104H293.723V338.304C293.563 338.571 293.333 338.784 293.033 338.944C292.74 339.104 292.397 339.184 292.003 339.184C291.543 339.184 291.127 339.068 290.753 338.834C290.38 338.594 290.083 338.258 289.863 337.824C289.65 337.384 289.543 336.878 289.543 336.304ZM293.723 336.314C293.723 335.888 293.603 335.551 293.363 335.304C293.13 335.058 292.843 334.934 292.503 334.934C292.163 334.934 291.873 335.058 291.633 335.304C291.4 335.544 291.283 335.878 291.283 336.304C291.283 336.731 291.4 337.071 291.633 337.324C291.873 337.571 292.163 337.694 292.503 337.694C292.843 337.694 293.13 337.571 293.363 337.324C293.603 337.078 293.723 336.741 293.723 336.314ZM303.039 335.504C303.446 335.591 303.773 335.794 304.019 336.114C304.266 336.428 304.389 336.788 304.389 337.194C304.389 337.781 304.183 338.248 303.769 338.594C303.363 338.934 302.793 339.104 302.059 339.104H298.789V332.084H301.949C302.663 332.084 303.219 332.248 303.619 332.574C304.026 332.901 304.229 333.344 304.229 333.904C304.229 334.318 304.119 334.661 303.899 334.934C303.686 335.208 303.399 335.398 303.039 335.504ZM300.499 334.924H301.619C301.899 334.924 302.113 334.864 302.259 334.744C302.413 334.618 302.489 334.434 302.489 334.194C302.489 333.954 302.413 333.771 302.259 333.644C302.113 333.518 301.899 333.454 301.619 333.454H300.499V334.924ZM301.759 337.724C302.046 337.724 302.266 337.661 302.419 337.534C302.579 337.401 302.659 337.211 302.659 336.964C302.659 336.718 302.576 336.524 302.409 336.384C302.249 336.244 302.026 336.174 301.739 336.174H300.499V337.724H301.759ZM305.041 336.304C305.041 335.731 305.148 335.228 305.361 334.794C305.581 334.361 305.878 334.028 306.251 333.794C306.625 333.561 307.041 333.444 307.501 333.444C307.895 333.444 308.238 333.524 308.531 333.684C308.831 333.844 309.061 334.054 309.221 334.314V333.524H310.931V339.104H309.221V338.314C309.055 338.574 308.821 338.784 308.521 338.944C308.228 339.104 307.885 339.184 307.491 339.184C307.038 339.184 306.625 339.068 306.251 338.834C305.878 338.594 305.581 338.258 305.361 337.824C305.148 337.384 305.041 336.878 305.041 336.304ZM309.221 336.314C309.221 335.888 309.101 335.551 308.861 335.304C308.628 335.058 308.341 334.934 308.001 334.934C307.661 334.934 307.371 335.058 307.131 335.304C306.898 335.544 306.781 335.878 306.781 336.304C306.781 336.731 306.898 337.071 307.131 337.324C307.371 337.571 307.661 337.694 308.001 337.694C308.341 337.694 308.628 337.571 308.861 337.324C309.101 337.078 309.221 336.741 309.221 336.314ZM315.568 333.464C316.222 333.464 316.742 333.678 317.128 334.104C317.522 334.524 317.718 335.104 317.718 335.844V339.104H316.018V336.074C316.018 335.701 315.922 335.411 315.728 335.204C315.535 334.998 315.275 334.894 314.948 334.894C314.622 334.894 314.362 334.998 314.168 335.204C313.975 335.411 313.878 335.701 313.878 336.074V339.104H312.168V333.524H313.878V334.264C314.052 334.018 314.285 333.824 314.578 333.684C314.872 333.538 315.202 333.464 315.568 333.464ZM322.317 339.104L320.617 336.764V339.104H318.907V331.704H320.617V335.794L322.307 333.524H324.417L322.097 336.324L324.437 339.104H322.317ZM331.577 337.864H328.957L328.537 339.104H326.747L329.287 332.084H331.267L333.807 339.104H331.997L331.577 337.864ZM331.137 336.544L330.267 333.974L329.407 336.544H331.137ZM337.38 334.944H336.46V339.104H334.75V334.944H334.13V333.524H334.75V333.364C334.75 332.678 334.947 332.158 335.34 331.804C335.734 331.444 336.31 331.264 337.07 331.264C337.197 331.264 337.29 331.268 337.35 331.274V332.724C337.024 332.704 336.794 332.751 336.66 332.864C336.527 332.978 336.46 333.181 336.46 333.474V333.524H337.38V334.944ZM339.894 334.454C340.094 334.148 340.344 333.908 340.644 333.734C340.944 333.554 341.277 333.464 341.644 333.464V335.274H341.174C340.747 335.274 340.427 335.368 340.214 335.554C340.001 335.734 339.894 336.054 339.894 336.514V339.104H338.184V333.524H339.894V334.454ZM343.321 332.944C343.021 332.944 342.775 332.858 342.581 332.684C342.395 332.504 342.301 332.284 342.301 332.024C342.301 331.758 342.395 331.538 342.581 331.364C342.775 331.184 343.021 331.094 343.321 331.094C343.615 331.094 343.855 331.184 344.041 331.364C344.235 331.538 344.331 331.758 344.331 332.024C344.331 332.284 344.235 332.504 344.041 332.684C343.855 332.858 343.615 332.944 343.321 332.944ZM344.171 333.524V339.104H342.461V333.524H344.171ZM345.071 336.314C345.071 335.734 345.187 335.228 345.421 334.794C345.661 334.361 345.991 334.028 346.411 333.794C346.837 333.561 347.324 333.444 347.871 333.444C348.571 333.444 349.154 333.628 349.621 333.994C350.094 334.361 350.404 334.878 350.551 335.544H348.731C348.577 335.118 348.281 334.904 347.841 334.904C347.527 334.904 347.277 335.028 347.091 335.274C346.904 335.514 346.811 335.861 346.811 336.314C346.811 336.768 346.904 337.118 347.091 337.364C347.277 337.604 347.527 337.724 347.841 337.724C348.281 337.724 348.577 337.511 348.731 337.084H350.551C350.404 337.738 350.094 338.251 349.621 338.624C349.147 338.998 348.564 339.184 347.871 339.184C347.324 339.184 346.837 339.068 346.411 338.834C345.991 338.601 345.661 338.268 345.421 337.834C345.187 337.401 345.071 336.894 345.071 336.314ZM351.125 336.304C351.125 335.731 351.232 335.228 351.445 334.794C351.665 334.361 351.962 334.028 352.335 333.794C352.709 333.561 353.125 333.444 353.585 333.444C353.979 333.444 354.322 333.524 354.615 333.684C354.915 333.844 355.145 334.054 355.305 334.314V333.524H357.015V339.104H355.305V338.314C355.139 338.574 354.905 338.784 354.605 338.944C354.312 339.104 353.969 339.184 353.575 339.184C353.122 339.184 352.709 339.068 352.335 338.834C351.962 338.594 351.665 338.258 351.445 337.824C351.232 337.384 351.125 336.878 351.125 336.304ZM355.305 336.314C355.305 335.888 355.185 335.551 354.945 335.304C354.712 335.058 354.425 334.934 354.085 334.934C353.745 334.934 353.455 335.058 353.215 335.304C352.982 335.544 352.865 335.878 352.865 336.304C352.865 336.731 352.982 337.071 353.215 337.324C353.455 337.571 353.745 337.694 354.085 337.694C354.425 337.694 354.712 337.571 354.945 337.324C355.185 337.078 355.305 336.741 355.305 336.314Z" fill="white"/>
<path opacity="0.5" d="M346.846 419.967C276.45 425.327 200.905 449 171.933 460.167V479.195H486.239C469.106 457.219 417.242 414.607 346.846 419.967Z" fill="url(#paint1_linear)"/>
<path d="M256.045 387.156L256.058 385.776L259.263 381.287L261.173 381.306L261.129 385.726L261.949 385.734L261.934 387.214L261.114 387.206L261.101 388.506L259.392 388.489L259.404 387.189L256.045 387.156ZM259.564 383.17L257.859 385.694L259.539 385.71L259.564 383.17ZM262.871 383.283C262.905 382.57 263.143 382.022 263.587 381.64C264.031 381.258 264.63 381.071 265.383 381.078C265.883 381.083 266.309 381.174 266.66 381.351C267.019 381.528 267.286 381.767 267.463 382.069C267.647 382.371 267.737 382.708 267.733 383.081C267.729 383.521 267.615 383.88 267.392 384.158C267.17 384.429 266.911 384.613 266.617 384.71L266.617 384.75C266.995 384.881 267.293 385.094 267.51 385.389C267.727 385.685 267.834 386.063 267.829 386.523C267.825 386.936 267.725 387.302 267.528 387.62C267.338 387.931 267.059 388.175 266.691 388.351C266.329 388.528 265.898 388.613 265.398 388.609C264.598 388.601 263.96 388.398 263.484 387.999C263.015 387.601 262.771 387.006 262.752 386.212L264.412 386.229C264.416 386.522 264.497 386.756 264.655 386.931C264.813 387.099 265.046 387.185 265.352 387.188C265.612 387.191 265.813 387.119 265.954 386.974C266.103 386.822 266.178 386.623 266.18 386.376C266.184 386.056 266.083 385.825 265.877 385.683C265.679 385.534 265.356 385.458 264.909 385.454L264.589 385.45L264.603 384.06L264.923 384.064C265.263 384.067 265.537 384.013 265.745 383.902C265.959 383.784 266.068 383.575 266.071 383.275C266.074 383.035 266.009 382.848 265.877 382.713C265.745 382.578 265.562 382.51 265.329 382.508C265.075 382.505 264.885 382.58 264.756 382.732C264.635 382.884 264.563 383.073 264.541 383.3L262.871 383.283ZM270.052 384.674C269.429 384.335 269.121 383.809 269.128 383.095C269.131 382.735 269.228 382.41 269.417 382.118C269.607 381.82 269.893 381.586 270.274 381.417C270.656 381.24 271.124 381.155 271.677 381.16C272.23 381.166 272.693 381.261 273.064 381.444C273.443 381.621 273.724 381.861 273.907 382.163C274.091 382.458 274.181 382.785 274.178 383.145C274.174 383.505 274.084 383.818 273.908 384.083C273.739 384.348 273.51 384.555 273.222 384.706C273.58 384.883 273.855 385.126 274.045 385.434C274.235 385.736 274.328 386.09 274.324 386.497C274.32 386.97 274.196 387.379 273.952 387.723C273.709 388.061 273.38 388.318 272.964 388.494C272.556 388.67 272.102 388.755 271.602 388.75C271.102 388.745 270.646 388.651 270.235 388.466C269.83 388.282 269.509 388.019 269.272 387.677C269.036 387.328 268.92 386.917 268.925 386.443C268.929 386.03 269.029 385.674 269.225 385.376C269.422 385.072 269.697 384.838 270.052 384.674ZM272.515 383.389C272.518 383.116 272.44 382.905 272.281 382.757C272.129 382.602 271.924 382.523 271.664 382.52C271.404 382.518 271.193 382.592 271.031 382.744C270.877 382.896 270.798 383.108 270.795 383.382C270.792 383.642 270.87 383.849 271.029 384.004C271.187 384.152 271.393 384.228 271.647 384.23C271.9 384.233 272.107 384.158 272.269 384.006C272.43 383.855 272.512 383.649 272.515 383.389ZM271.635 385.43C271.321 385.427 271.067 385.511 270.872 385.683C270.677 385.847 270.578 386.08 270.575 386.38C270.572 386.66 270.664 386.891 270.848 387.073C271.04 387.254 271.296 387.347 271.616 387.35C271.936 387.353 272.187 387.266 272.368 387.088C272.557 386.909 272.652 386.68 272.655 386.4C272.658 386.107 272.564 385.873 272.372 385.698C272.187 385.522 271.941 385.433 271.635 385.43ZM278.96 383.353C278.909 383.106 278.818 382.921 278.686 382.8C278.553 382.672 278.364 382.607 278.117 382.604C277.737 382.601 277.463 382.765 277.293 383.096C277.123 383.421 277.031 383.94 277.017 384.654C277.166 384.422 277.378 384.24 277.653 384.11C277.934 383.979 278.241 383.916 278.574 383.919C279.228 383.925 279.749 384.137 280.138 384.555C280.534 384.972 280.728 385.55 280.721 386.29C280.716 386.777 280.612 387.203 280.408 387.567C280.211 387.932 279.922 388.216 279.54 388.419C279.164 388.622 278.72 388.721 278.207 388.716C277.18 388.705 276.47 388.378 276.076 387.734C275.683 387.084 275.492 386.155 275.504 384.949C275.517 383.682 275.736 382.744 276.162 382.135C276.595 381.519 277.278 381.216 278.211 381.225C278.711 381.23 279.13 381.334 279.468 381.538C279.813 381.735 280.07 381.994 280.24 382.315C280.417 382.637 280.52 382.988 280.55 383.369L278.96 383.353ZM278.151 385.265C277.864 385.262 277.624 385.346 277.429 385.518C277.24 385.683 277.145 385.922 277.141 386.235C277.138 386.555 277.222 386.806 277.394 386.987C277.572 387.169 277.825 387.262 278.151 387.265C278.445 387.268 278.675 387.184 278.844 387.012C279.019 386.834 279.108 386.591 279.111 386.284C279.114 385.971 279.033 385.724 278.868 385.542C278.703 385.36 278.464 385.268 278.151 385.265ZM288.253 388.775L286.844 386.611L285.563 388.749L283.623 388.729L285.909 385.182L283.643 381.709L285.633 381.729L287.022 383.863L288.283 381.755L290.223 381.774L287.958 385.292L290.243 388.795L288.253 388.775ZM295.401 388.846L293.993 386.682L292.711 388.82L290.771 388.8L293.057 385.253L290.791 381.78L292.781 381.8L294.17 383.934L295.431 381.826L297.371 381.845L295.106 385.363L297.391 388.866L295.401 388.846ZM302.549 388.917L301.141 386.753L299.859 388.89L297.919 388.871L300.205 385.324L297.939 381.851L299.929 381.871L301.318 384.005L302.579 381.897L304.519 381.916L302.254 385.434L304.539 388.937L302.549 388.917ZM309.697 388.988L308.289 386.824L307.007 388.961L305.068 388.942L307.353 385.395L305.087 381.922L307.077 381.942L308.466 384.076L309.727 381.968L311.667 381.987L309.402 385.505L311.687 389.008L309.697 388.988ZM318.964 389.08L317.556 386.916L316.275 389.053L314.335 389.034L316.62 385.487L314.354 382.014L316.344 382.034L317.733 384.168L318.994 382.06L320.934 382.079L318.669 385.597L320.954 389.1L318.964 389.08ZM326.113 389.151L324.704 386.987L323.423 389.124L321.483 389.105L323.768 385.557L321.502 382.085L323.492 382.105L324.881 384.238L326.142 382.131L328.082 382.15L325.817 385.668L328.102 389.171L326.113 389.151ZM333.261 389.222L331.852 387.058L330.571 389.195L328.631 389.176L330.916 385.628L328.65 382.156L330.64 382.176L332.029 384.309L333.29 382.202L335.23 382.221L332.965 385.739L335.251 389.242L333.261 389.222ZM340.409 389.293L339 387.129L337.719 389.266L335.779 389.247L338.064 385.699L335.799 382.227L337.788 382.246L339.177 384.38L340.438 382.273L342.378 382.292L340.113 385.81L342.399 389.313L340.409 389.293ZM349.676 389.385L348.267 387.221L346.986 389.358L345.046 389.339L347.331 385.791L345.066 382.319L347.056 382.338L348.445 384.472L349.705 382.365L351.645 382.384L349.38 385.902L351.666 389.404L349.676 389.385ZM356.824 389.456L355.415 387.292L354.134 389.429L352.194 389.41L354.479 385.862L352.214 382.39L354.204 382.409L355.593 384.543L356.854 382.436L358.793 382.455L356.528 385.973L358.814 389.475L356.824 389.456ZM363.972 389.527L362.563 387.362L361.282 389.5L359.342 389.481L361.628 385.933L359.362 382.46L361.352 382.48L362.741 384.614L364.002 382.507L365.942 382.526L363.677 386.043L365.962 389.546L363.972 389.527Z" fill="white"/>
<path d="M210.354 438.969C209.894 438.969 209.48 438.889 209.114 438.729C208.754 438.562 208.47 438.336 208.264 438.049C208.057 437.756 207.95 437.419 207.944 437.039H208.914C208.947 437.366 209.08 437.642 209.314 437.869C209.554 438.089 209.9 438.199 210.354 438.199C210.787 438.199 211.127 438.092 211.374 437.879C211.627 437.659 211.754 437.379 211.754 437.039C211.754 436.772 211.68 436.556 211.534 436.389C211.387 436.222 211.204 436.096 210.984 436.009C210.764 435.922 210.467 435.829 210.094 435.729C209.634 435.609 209.264 435.489 208.984 435.369C208.71 435.249 208.474 435.062 208.274 434.809C208.08 434.549 207.984 434.202 207.984 433.769C207.984 433.389 208.08 433.052 208.274 432.759C208.467 432.466 208.737 432.239 209.084 432.079C209.437 431.919 209.84 431.839 210.294 431.839C210.947 431.839 211.48 432.002 211.894 432.329C212.314 432.656 212.55 433.089 212.604 433.629H211.604C211.57 433.362 211.43 433.129 211.184 432.929C210.937 432.722 210.61 432.619 210.204 432.619C209.824 432.619 209.514 432.719 209.274 432.919C209.034 433.112 208.914 433.386 208.914 433.739C208.914 433.992 208.984 434.199 209.124 434.359C209.27 434.519 209.447 434.642 209.654 434.729C209.867 434.809 210.164 434.902 210.544 435.009C211.004 435.136 211.374 435.262 211.654 435.389C211.934 435.509 212.174 435.699 212.374 435.959C212.574 436.212 212.674 436.559 212.674 436.999C212.674 437.339 212.584 437.659 212.404 437.959C212.224 438.259 211.957 438.502 211.604 438.689C211.25 438.876 210.834 438.969 210.354 438.969ZM216.733 433.319C217.146 433.319 217.52 433.409 217.853 433.589C218.186 433.762 218.446 434.026 218.633 434.379C218.826 434.732 218.923 435.162 218.923 435.669V438.899H218.023V435.799C218.023 435.252 217.886 434.836 217.613 434.549C217.34 434.256 216.966 434.109 216.493 434.109C216.013 434.109 215.63 434.259 215.343 434.559C215.063 434.859 214.923 435.296 214.923 435.869V438.899H214.013V431.499H214.923V434.199C215.103 433.919 215.35 433.702 215.663 433.549C215.983 433.396 216.34 433.319 216.733 433.319ZM225.409 435.949C225.409 436.122 225.399 436.306 225.379 436.499H220.999C221.033 437.039 221.216 437.462 221.549 437.769C221.889 438.069 222.299 438.219 222.779 438.219C223.173 438.219 223.499 438.129 223.759 437.949C224.026 437.762 224.213 437.516 224.319 437.209H225.299C225.153 437.736 224.859 438.166 224.419 438.499C223.979 438.826 223.433 438.989 222.779 438.989C222.259 438.989 221.793 438.872 221.379 438.639C220.973 438.406 220.653 438.076 220.419 437.649C220.186 437.216 220.069 436.716 220.069 436.149C220.069 435.582 220.183 435.086 220.409 434.659C220.636 434.232 220.953 433.906 221.359 433.679C221.773 433.446 222.246 433.329 222.779 433.329C223.299 433.329 223.759 433.442 224.159 433.669C224.559 433.896 224.866 434.209 225.079 434.609C225.299 435.002 225.409 435.449 225.409 435.949ZM224.469 435.759C224.469 435.412 224.393 435.116 224.239 434.869C224.086 434.616 223.876 434.426 223.609 434.299C223.349 434.166 223.059 434.099 222.739 434.099C222.279 434.099 221.886 434.246 221.559 434.539C221.239 434.832 221.056 435.239 221.009 435.759H224.469ZM226.271 436.139C226.271 435.579 226.384 435.089 226.611 434.669C226.837 434.242 227.147 433.912 227.541 433.679C227.941 433.446 228.387 433.329 228.881 433.329C229.307 433.329 229.704 433.429 230.071 433.629C230.437 433.822 230.717 434.079 230.911 434.399V431.499H231.831V438.899H230.911V437.869C230.731 438.196 230.464 438.466 230.111 438.679C229.757 438.886 229.344 438.989 228.871 438.989C228.384 438.989 227.941 438.869 227.541 438.629C227.147 438.389 226.837 438.052 226.611 437.619C226.384 437.186 226.271 436.692 226.271 436.139ZM230.911 436.149C230.911 435.736 230.827 435.376 230.661 435.069C230.494 434.762 230.267 434.529 229.981 434.369C229.701 434.202 229.391 434.119 229.051 434.119C228.711 434.119 228.401 434.199 228.121 434.359C227.841 434.519 227.617 434.752 227.451 435.059C227.284 435.366 227.201 435.726 227.201 436.139C227.201 436.559 227.284 436.926 227.451 437.239C227.617 437.546 227.841 437.782 228.121 437.949C228.401 438.109 228.711 438.189 229.051 438.189C229.391 438.189 229.701 438.109 229.981 437.949C230.267 437.782 230.494 437.546 230.661 437.239C230.827 436.926 230.911 436.562 230.911 436.149ZM234.278 434.309C234.438 433.996 234.665 433.752 234.958 433.579C235.258 433.406 235.622 433.319 236.048 433.319V434.259H235.808C234.788 434.259 234.278 434.812 234.278 435.919V438.899H233.368V433.419H234.278V434.309ZM236.759 436.139C236.759 435.579 236.872 435.089 237.099 434.669C237.326 434.242 237.636 433.912 238.029 433.679C238.429 433.446 238.872 433.329 239.359 433.329C239.839 433.329 240.256 433.432 240.609 433.639C240.962 433.846 241.226 434.106 241.399 434.419V433.419H242.319V438.899H241.399V437.879C241.219 438.199 240.949 438.466 240.589 438.679C240.236 438.886 239.822 438.989 239.349 438.989C238.862 438.989 238.422 438.869 238.029 438.629C237.636 438.389 237.326 438.052 237.099 437.619C236.872 437.186 236.759 436.692 236.759 436.139ZM241.399 436.149C241.399 435.736 241.316 435.376 241.149 435.069C240.982 434.762 240.756 434.529 240.469 434.369C240.189 434.202 239.879 434.119 239.539 434.119C239.199 434.119 238.889 434.199 238.609 434.359C238.329 434.519 238.106 434.752 237.939 435.059C237.772 435.366 237.689 435.726 237.689 436.139C237.689 436.559 237.772 436.926 237.939 437.239C238.106 437.546 238.329 437.782 238.609 437.949C238.889 438.109 239.199 438.189 239.539 438.189C239.879 438.189 240.189 438.109 240.469 437.949C240.756 437.782 240.982 437.546 241.149 437.239C241.316 436.926 241.399 436.562 241.399 436.149ZM243.517 436.149C243.517 435.582 243.63 435.089 243.857 434.669C244.083 434.242 244.397 433.912 244.797 433.679C245.203 433.446 245.667 433.329 246.187 433.329C246.86 433.329 247.413 433.492 247.847 433.819C248.287 434.146 248.577 434.599 248.717 435.179H247.737C247.643 434.846 247.46 434.582 247.187 434.389C246.92 434.196 246.587 434.099 246.187 434.099C245.667 434.099 245.247 434.279 244.927 434.639C244.607 434.992 244.447 435.496 244.447 436.149C244.447 436.809 244.607 437.319 244.927 437.679C245.247 438.039 245.667 438.219 246.187 438.219C246.587 438.219 246.92 438.126 247.187 437.939C247.453 437.752 247.637 437.486 247.737 437.139H248.717C248.57 437.699 248.277 438.149 247.837 438.489C247.397 438.822 246.847 438.989 246.187 438.989C245.667 438.989 245.203 438.872 244.797 438.639C244.397 438.406 244.083 438.076 243.857 437.649C243.63 437.222 243.517 436.722 243.517 436.149ZM252.991 438.899L250.841 436.479V438.899H249.931V431.499H250.841V435.849L252.951 433.419H254.221L251.641 436.149L254.231 438.899H252.991ZM261.413 438.899L259.753 436.049H258.653V438.899H257.743V431.929H259.993C260.52 431.929 260.963 432.019 261.323 432.199C261.69 432.379 261.963 432.622 262.143 432.929C262.323 433.236 262.413 433.586 262.413 433.979C262.413 434.459 262.273 434.882 261.993 435.249C261.72 435.616 261.307 435.859 260.753 435.979L262.503 438.899H261.413ZM258.653 435.319H259.993C260.487 435.319 260.857 435.199 261.103 434.959C261.35 434.712 261.473 434.386 261.473 433.979C261.473 433.566 261.35 433.246 261.103 433.019C260.863 432.792 260.493 432.679 259.993 432.679H258.653V435.319ZM266.217 438.989C265.704 438.989 265.237 438.872 264.817 438.639C264.404 438.406 264.077 438.076 263.837 437.649C263.604 437.216 263.487 436.716 263.487 436.149C263.487 435.589 263.607 435.096 263.847 434.669C264.094 434.236 264.427 433.906 264.847 433.679C265.267 433.446 265.737 433.329 266.257 433.329C266.777 433.329 267.247 433.446 267.667 433.679C268.087 433.906 268.417 434.232 268.657 434.659C268.904 435.086 269.027 435.582 269.027 436.149C269.027 436.716 268.901 437.216 268.647 437.649C268.401 438.076 268.064 438.406 267.637 438.639C267.211 438.872 266.737 438.989 266.217 438.989ZM266.217 438.189C266.544 438.189 266.851 438.112 267.137 437.959C267.424 437.806 267.654 437.576 267.827 437.269C268.007 436.962 268.097 436.589 268.097 436.149C268.097 435.709 268.011 435.336 267.837 435.029C267.664 434.722 267.437 434.496 267.157 434.349C266.877 434.196 266.574 434.119 266.247 434.119C265.914 434.119 265.607 434.196 265.327 434.349C265.054 434.496 264.834 434.722 264.667 435.029C264.501 435.336 264.417 435.709 264.417 436.149C264.417 436.596 264.497 436.972 264.657 437.279C264.824 437.586 265.044 437.816 265.317 437.969C265.591 438.116 265.891 438.189 266.217 438.189ZM272.164 438.989C271.744 438.989 271.367 438.919 271.034 438.779C270.701 438.632 270.437 438.432 270.244 438.179C270.051 437.919 269.944 437.622 269.924 437.289H270.864C270.891 437.562 271.017 437.786 271.244 437.959C271.477 438.132 271.781 438.219 272.154 438.219C272.501 438.219 272.774 438.142 272.974 437.989C273.174 437.836 273.274 437.642 273.274 437.409C273.274 437.169 273.167 436.992 272.954 436.879C272.741 436.759 272.411 436.642 271.964 436.529C271.557 436.422 271.224 436.316 270.964 436.209C270.711 436.096 270.491 435.932 270.304 435.719C270.124 435.499 270.034 435.212 270.034 434.859C270.034 434.579 270.117 434.322 270.284 434.089C270.451 433.856 270.687 433.672 270.994 433.539C271.301 433.399 271.651 433.329 272.044 433.329C272.651 433.329 273.141 433.482 273.514 433.789C273.887 434.096 274.087 434.516 274.114 435.049H273.204C273.184 434.762 273.067 434.532 272.854 434.359C272.647 434.186 272.367 434.099 272.014 434.099C271.687 434.099 271.427 434.169 271.234 434.309C271.041 434.449 270.944 434.632 270.944 434.859C270.944 435.039 271.001 435.189 271.114 435.309C271.234 435.422 271.381 435.516 271.554 435.589C271.734 435.656 271.981 435.732 272.294 435.819C272.687 435.926 273.007 436.032 273.254 436.139C273.501 436.239 273.711 436.392 273.884 436.599C274.064 436.806 274.157 437.076 274.164 437.409C274.164 437.709 274.081 437.979 273.914 438.219C273.747 438.459 273.511 438.649 273.204 438.789C272.904 438.922 272.557 438.989 272.164 438.989ZM280.448 435.949C280.448 436.122 280.438 436.306 280.418 436.499H276.038C276.072 437.039 276.255 437.462 276.588 437.769C276.928 438.069 277.338 438.219 277.818 438.219C278.212 438.219 278.538 438.129 278.798 437.949C279.065 437.762 279.252 437.516 279.358 437.209H280.338C280.192 437.736 279.898 438.166 279.458 438.499C279.018 438.826 278.472 438.989 277.818 438.989C277.298 438.989 276.832 438.872 276.418 438.639C276.012 438.406 275.692 438.076 275.458 437.649C275.225 437.216 275.108 436.716 275.108 436.149C275.108 435.582 275.222 435.086 275.448 434.659C275.675 434.232 275.992 433.906 276.398 433.679C276.812 433.446 277.285 433.329 277.818 433.329C278.338 433.329 278.798 433.442 279.198 433.669C279.598 433.896 279.905 434.209 280.118 434.609C280.338 435.002 280.448 435.449 280.448 435.949ZM279.508 435.759C279.508 435.412 279.432 435.116 279.278 434.869C279.125 434.616 278.915 434.426 278.648 434.299C278.388 434.166 278.098 434.099 277.778 434.099C277.318 434.099 276.925 434.246 276.598 434.539C276.278 434.832 276.095 435.239 276.048 435.759H279.508ZM289.796 438.899H288.886L285.226 433.349V438.899H284.316V431.919H285.226L288.886 437.459V431.919H289.796V438.899ZM296.347 435.949C296.347 436.122 296.337 436.306 296.317 436.499H291.937C291.97 437.039 292.154 437.462 292.487 437.769C292.827 438.069 293.237 438.219 293.717 438.219C294.11 438.219 294.437 438.129 294.697 437.949C294.964 437.762 295.15 437.516 295.257 437.209H296.237C296.09 437.736 295.797 438.166 295.357 438.499C294.917 438.826 294.37 438.989 293.717 438.989C293.197 438.989 292.73 438.872 292.317 438.639C291.91 438.406 291.59 438.076 291.357 437.649C291.124 437.216 291.007 436.716 291.007 436.149C291.007 435.582 291.12 435.086 291.347 434.659C291.574 434.232 291.89 433.906 292.297 433.679C292.71 433.446 293.184 433.329 293.717 433.329C294.237 433.329 294.697 433.442 295.097 433.669C295.497 433.896 295.804 434.209 296.017 434.609C296.237 435.002 296.347 435.449 296.347 435.949ZM295.407 435.759C295.407 435.412 295.33 435.116 295.177 434.869C295.024 434.616 294.814 434.426 294.547 434.299C294.287 434.166 293.997 434.099 293.677 434.099C293.217 434.099 292.824 434.246 292.497 434.539C292.177 434.832 291.994 435.239 291.947 435.759H295.407ZM298.018 432.529C297.845 432.529 297.698 432.469 297.578 432.349C297.458 432.229 297.398 432.082 297.398 431.909C297.398 431.736 297.458 431.589 297.578 431.469C297.698 431.349 297.845 431.289 298.018 431.289C298.185 431.289 298.325 431.349 298.438 431.469C298.558 431.589 298.618 431.736 298.618 431.909C298.618 432.082 298.558 432.229 298.438 432.349C298.325 432.469 298.185 432.529 298.018 432.529ZM298.458 433.419V438.899H297.548V433.419H298.458ZM306.599 433.319C307.026 433.319 307.406 433.409 307.739 433.589C308.072 433.762 308.336 434.026 308.529 434.379C308.722 434.732 308.819 435.162 308.819 435.669V438.899H307.919V435.799C307.919 435.252 307.782 434.836 307.509 434.549C307.242 434.256 306.879 434.109 306.419 434.109C305.946 434.109 305.569 434.262 305.289 434.569C305.009 434.869 304.869 435.306 304.869 435.879V438.899H303.969V435.799C303.969 435.252 303.832 434.836 303.559 434.549C303.292 434.256 302.929 434.109 302.469 434.109C301.996 434.109 301.619 434.262 301.339 434.569C301.059 434.869 300.919 435.306 300.919 435.879V438.899H300.009V433.419H300.919V434.209C301.099 433.922 301.339 433.702 301.639 433.549C301.946 433.396 302.282 433.319 302.649 433.319C303.109 433.319 303.516 433.422 303.869 433.629C304.222 433.836 304.486 434.139 304.659 434.539C304.812 434.152 305.066 433.852 305.419 433.639C305.772 433.426 306.166 433.319 306.599 433.319ZM309.972 436.139C309.972 435.579 310.085 435.089 310.312 434.669C310.538 434.242 310.848 433.912 311.242 433.679C311.642 433.446 312.085 433.329 312.572 433.329C313.052 433.329 313.468 433.432 313.822 433.639C314.175 433.846 314.438 434.106 314.612 434.419V433.419H315.532V438.899H314.612V437.879C314.432 438.199 314.162 438.466 313.802 438.679C313.448 438.886 313.035 438.989 312.562 438.989C312.075 438.989 311.635 438.869 311.242 438.629C310.848 438.389 310.538 438.052 310.312 437.619C310.085 437.186 309.972 436.692 309.972 436.139ZM314.612 436.149C314.612 435.736 314.528 435.376 314.362 435.069C314.195 434.762 313.968 434.529 313.682 434.369C313.402 434.202 313.092 434.119 312.752 434.119C312.412 434.119 312.102 434.199 311.822 434.359C311.542 434.519 311.318 434.752 311.152 435.059C310.985 435.366 310.902 435.726 310.902 436.139C310.902 436.559 310.985 436.926 311.152 437.239C311.318 437.546 311.542 437.782 311.822 437.949C312.102 438.109 312.412 438.189 312.752 438.189C313.092 438.189 313.402 438.109 313.682 437.949C313.968 437.782 314.195 437.546 314.362 437.239C314.528 436.926 314.612 436.562 314.612 436.149Z" fill="white"/>
<path d="M181.259 416.707C182.245 415.499 185.471 413.827 188.607 415.314C191.802 416.828 193.147 415.465 194.251 412.434C195.775 408.254 200.792 408.44 201.778 411.505" stroke="url(#paint2_linear)" stroke-width="2" stroke-linecap="round" stroke-linejoin="round"/>
<circle cx="412.093" cy="356.551" r="7.92761" fill="url(#paint3_linear)"/>
<path d="M427.652 427.622L438.099 435.913L427.287 441.315L427.652 427.622Z" fill="url(#paint4_linear)"/>
<defs>
<linearGradient id="paint0_linear" x1="323.35" y1="263.786" x2="329.352" y2="567.978" gradientUnits="userSpaceOnUse">
<stop stop-color="#FD749B"/>
<stop offset="1" stop-color="#281AC8"/>
</linearGradient>
<linearGradient id="paint1_linear" x1="344.801" y1="410.109" x2="345.441" y2="515.953" gradientUnits="userSpaceOnUse">
<stop stop-color="#FD749B"/>
<stop offset="1" stop-color="#281AC8"/>
</linearGradient>
<linearGradient id="paint2_linear" x1="176.677" y1="411.944" x2="179.473" y2="422.573" gradientUnits="userSpaceOnUse">
<stop stop-color="#FC58B3"/>
<stop offset="1" stop-color="#FEAE68"/>
</linearGradient>
<linearGradient id="paint3_linear" x1="400.624" y1="354.357" x2="412.093" y2="370.212" gradientUnits="userSpaceOnUse">
<stop stop-color="#FC58B3"/>
<stop offset="1" stop-color="#FEAE68"/>
</linearGradient>
<linearGradient id="paint4_linear" x1="421.424" y1="435.619" x2="434.647" y2="442.524" gradientUnits="userSpaceOnUse">
<stop stop-color="#FC58B3"/>
<stop offset="1" stop-color="#FEAE68"/>
</linearGradient>
</defs>
</svg>
