<svg width="213" height="211" viewBox="0 0 213 211" fill="none" xmlns="http://www.w3.org/2000/svg">
<circle cx="109" cy="110" r="51" fill="#FD749B"/>
<path d="M103.647 135L159.177 76" stroke="url(#paint0_linear)" stroke-width="5" stroke-linecap="round" stroke-linejoin="round"/>
<path d="M110.589 76L166.118 135" stroke="url(#paint1_linear)" stroke-width="5" stroke-linecap="round" stroke-linejoin="round"/>
<path d="M80.6889 130.23C80.42 130.115 80.2537 129.841 80.2763 129.55C80.5938 125.472 80.0772 124.188 77.0259 121.465C76.8083 121.27 76.7384 120.958 76.8532 120.688C76.9679 120.42 77.2417 120.254 77.5328 120.276C81.6105 120.594 82.8951 120.077 85.6183 117.026C85.813 116.808 86.1254 116.738 86.3945 116.853C86.6637 116.968 86.8292 117.241 86.807 117.533C86.4896 121.61 87.0062 122.895 90.0574 125.618C90.2751 125.813 90.3449 126.125 90.2302 126.394C90.1154 126.663 89.8417 126.829 89.5505 126.807C85.4727 126.489 84.1883 127.006 81.465 130.057C81.2698 130.275 80.9577 130.344 80.6889 130.23Z" fill="white"/>
<path d="M170 94C171.297 92.3816 175.542 90.1408 179.669 92.1327C183.874 94.1625 185.643 92.3361 187.097 88.2734C189.101 82.6713 195.704 82.9203 197 87.0285" stroke="url(#paint2_linear)" stroke-width="3" stroke-linecap="round" stroke-linejoin="round"/>
<path d="M67.5493 64.5613L63.2132 59.8951L64.5991 53.678C64.6764 53.331 64.55 52.9702 64.2733 52.7474C63.9966 52.5247 63.6172 52.4781 63.2946 52.6279L57.517 55.3097L52.0322 52.0702C51.3676 51.6777 50.5377 52.2193 50.6305 52.9863L51.3955 59.3101L46.6197 63.5255C46.0411 64.0364 46.2995 64.9935 47.0578 65.1415L53.3085 66.3682C56.0682 72.7347 55.866 72.3701 56.1128 72.5688C56.2636 72.6902 56.4514 72.7641 56.6524 72.774C57.0072 72.7914 57.3414 72.6062 57.5143 72.2958L60.6123 66.7298L66.9534 66.1263C67.7219 66.0536 68.0754 65.1277 67.5493 64.5613Z" fill="#FFA92C"/>
<path d="M54.6009 64.0049L53.8359 57.6811C53.7432 56.915 54.5723 56.3721 55.2376 56.765L60.7224 60.0045L63.4736 58.7275L64.5991 53.678C64.6764 53.331 64.55 52.9702 64.2733 52.7474C63.9966 52.5247 63.6172 52.4781 63.2946 52.6279L57.517 55.3097L52.0322 52.0702C51.3676 51.6777 50.5377 52.2193 50.6305 52.9863L51.3955 59.3101L46.6197 63.5255C46.0411 64.0364 46.2995 64.9935 47.0578 65.1415L52.175 66.1458L54.6009 64.0049Z" fill="#FF8828"/>
<defs>
<linearGradient id="paint0_linear" x1="134.189" y1="66.713" x2="137.725" y2="171.217" gradientUnits="userSpaceOnUse">
<stop stop-color="#FD749B"/>
<stop offset="1" stop-color="#281AC8"/>
</linearGradient>
<linearGradient id="paint1_linear" x1="141.13" y1="66.713" x2="144.666" y2="171.217" gradientUnits="userSpaceOnUse">
<stop stop-color="#FD749B"/>
<stop offset="1" stop-color="#281AC8"/>
</linearGradient>
<linearGradient id="paint2_linear" x1="163.971" y1="87.6165" x2="167.778" y2="101.828" gradientUnits="userSpaceOnUse">
<stop stop-color="#FC58B3"/>
<stop offset="1" stop-color="#FEAE68"/>
</linearGradient>
</defs>
</svg>
